<svg
        width="22"
        height="20"
        viewBox="0 0 22 20"
        fill="none"
        xmlns="http://www.w3.org/2000/svg"
>
    <path fill="currentColor" fill-rule="evenodd"
          d="M4.489 2.623c-.205-.224-.441-.5-.653-.772h6.47a54.29 54.29 0 0 1-.682.785l-.23.26v6.528l.384.277c.694.5 1.52 1.235 2.008 1.842-.328.003-.757.005-1.255.006-1.075.002-2.467.001-3.852-.001-1.384-.003-2.76-.006-3.802-.01l-.54-.002c.377-.48 1.01-1.114 2.01-1.835l.383-.277V2.887l-.241-.264Zm7.964 8.906.006-.002h-.003l-.003.002ZM1.87.234c.3-.225.634-.244.847-.23h8.574c.104 0 .228 0 .34.005.109.006.283.019.46.076.183.058.502.205.678.569.166.346.097.671.041.843-.104.32-.347.657-.592.97-.23.293-.542.66-.941 1.117v4.917c.73.569 1.546 1.32 2.076 2.011.16.208.309.43.422.658.109.216.217.499.225.813.008.35-.116.739-.456 1.026-.302.255-.669.34-.97.365-.173.015-1 .02-2.039.022-.84.002-1.514-.02-2.583-.022l-.015 6.78c0 .51-.432 1.846-.952 1.846s-.93-1.335-.93-1.846l.014-6.783c-2.404-.005-4.916.009-5.016.007a1.056 1.056 0 0 1-.945-.61 1.266 1.266 0 0 1-.094-.707c.047-.352.214-.73.44-1.098.426-.688 1.185-1.54 2.394-2.465v-4.91c-.35-.4-.757-.912-1.033-1.368a3.576 3.576 0 0 1-.24-.46 1.688 1.688 0 0 1-.142-.594A1.104 1.104 0 0 1 1.87.234Z"
          clip-rule="evenodd"/>
</svg>