<svg
        width="22"
        height="20"
        viewBox="0 0 22 20"
        fill="none"
        xmlns="http://www.w3.org/2000/svg"
>
    <path fill="currentColor" fill-rule="evenodd"
          d="M12.449 3.671c.014-.313.043-.687.088-1.04l4.728 4.727c-.3.025-.655.05-1.073.076l-.358.022-.252.252-4.177 4.177-.342.341.079.483c.14.873.208 2.014.12 2.815a1105.647 1105.647 0 0 1-3.735-3.729c-1.01-1.014-2.012-2.022-2.771-2.786l-.394-.397c.627-.074 1.552-.075 2.81.128l.483.078.341-.342L12.174 4.3l.259-.259.016-.369ZM11.76 16l.005.003-.002-.002L11.76 16ZM12.28.012a1.3 1.3 0 0 1 .787.45l6.257 6.257.01.01c.075.075.166.165.244.252.075.083.193.22.281.391.091.176.216.518.079.911-.131.375-.42.562-.586.647-.31.158-.733.226-1.141.275-.383.047-.88.088-1.505.13l-3.593 3.593c.118.95.165 2.095.047 2.987-.035.269-.089.54-.171.79a2.002 2.002 0 0 1-.43.757c-.251.263-.625.456-1.084.417-.407-.034-.737-.24-.976-.441-.137-.116-.744-.717-1.506-1.475-.615-.613-1.09-1.121-1.872-1.904l-4.965 4.945c-.373.372-1.665 1.033-2.045.653-.38-.38.296-1.657.669-2.03l4.968-4.946c-1.754-1.761-3.6-3.587-3.67-3.66a1.091 1.091 0 0 1-.246-1.137c.106-.292.31-.48.448-.585.292-.224.69-.378 1.124-.48.814-.193 1.992-.26 3.551-.054l3.588-3.588c.038-.548.114-1.22.245-1.754.042-.17.094-.348.161-.512.062-.152.163-.36.33-.537.179-.19.523-.43 1.001-.362Z"
          clip-rule="evenodd"/>
</svg>